<?xml version="1.0" encoding="UTF-8" standalone="no"?>
<!-- Created with Inkscape (http://www.inkscape.org/) -->

<svg
   xmlns:dc="http://purl.org/dc/elements/1.1/"
   xmlns:cc="http://creativecommons.org/ns#"
   xmlns:rdf="http://www.w3.org/1999/02/22-rdf-syntax-ns#"
   xmlns:svg="http://www.w3.org/2000/svg"
   xmlns="http://www.w3.org/2000/svg"
   xmlns:sodipodi="http://sodipodi.sourceforge.net/DTD/sodipodi-0.dtd"
   xmlns:inkscape="http://www.inkscape.org/namespaces/inkscape"
   width="70.906303"
   height="70.1875"
   id="svg3170"
   version="1.1"
   inkscape:version="0.48.4 r9939"
   sodipodi:docname="Uus dokument 2">
  <defs
     id="defs3172" />
  <sodipodi:namedview
     id="base"
     pagecolor="#ffffff"
     bordercolor="#666666"
     borderopacity="1.0"
     inkscape:pageopacity="0.0"
     inkscape:pageshadow="2"
     inkscape:zoom="0.35"
     inkscape:cx="16.16746"
     inkscape:cy="29.379467"
     inkscape:document-units="px"
     inkscape:current-layer="layer1"
     showgrid="false"
     inkscape:window-width="1366"
     inkscape:window-height="706"
     inkscape:window-x="-8"
     inkscape:window-y="-8"
     inkscape:window-maximized="1"
     fit-margin-top="0"
     fit-margin-left="0"
     fit-margin-right="0"
     fit-margin-bottom="0" />
  <metadata
     id="metadata3175">
    <rdf:RDF>
      <cc:Work
         rdf:about="">
        <dc:format>image/svg+xml</dc:format>
        <dc:type
           rdf:resource="http://purl.org/dc/dcmitype/StillImage" />
        <dc:title></dc:title>
      </cc:Work>
    </rdf:RDF>
  </metadata>
  <g
     inkscape:label="Layer 1"
     inkscape:groupmode="layer"
     id="layer1"
     transform="translate(-358.83254,-491.55415)">
    <path
       inkscape:connector-curvature="0"
       style="color:#000000;fill:#000000;fill-opacity:1;fill-rule:nonzero;stroke:none;stroke-width:5;marker:none;visibility:visible;display:inline;overflow:visible;enable-background:accumulate"
       d="m 385.61384,491.55415 c -4.1968,0 -7.5938,3.39695 -7.5938,7.59375 0,3.46608 2.3278,6.39933 5.5,7.3125 l 0,14.0625 -24.6875,0 0,8.875 13.0938,0 0,17.4375 c -3.1723,0.91317 -5.5,3.84642 -5.5,7.3125 0,4.1968 3.3969,7.59375 7.5937,7.59375 4.1968,0 7.5938,-3.39695 7.5938,-7.59375 0,-3.46608 -2.3277,-6.39933 -5.5,-7.3125 l 0,-17.4375 19,0 0,7.96875 c -3.1723,0.91317 -5.5,3.81517 -5.5,7.28125 0,4.1968 3.3969,7.59375 7.5937,7.59375 4.1968,0 7.5938,-3.39695 7.5938,-7.59375 0,-3.47419 -2.3163,-6.37539 -5.5,-7.28125 l 0,-7.96875 11.8125,0 0,4.6875 18.625,-9.125 -18.625,-9.125 0,4.6875 -23.4063,0 0,-14.0625 c 3.1723,-0.91317 5.5,-3.84642 5.5,-7.3125 0,-4.1968 -3.3969,-7.59375 -7.5937,-7.59375 z"
       id="rect6282-7-3-9" />
  </g>
</svg>
